Coordinates
version=1
nRows=24
nColumns=38
inDegrees=no

Units are S.I. units (second, meters, Newtons, ...)
If the header above contains a line with 'inDegrees', this indicates whether rotational values are in degrees (yes) or radians (no).

endheader
time	pelvis_tilt	pelvis_list	pelvis_rotation	pelvis_tx	pelvis_ty	pelvis_tz	hip_flexion_r	hip_adduction_r	hip_rotation_r	knee_angle_r	ankle_angle_r	subtalar_angle_r	mtp_angle_r	hip_flexion_l	hip_adduction_l	hip_rotation_l	knee_angle_l	ankle_angle_l	subtalar_angle_l	mtp_angle_l	lumbar_extension	lumbar_bending	lumbar_rotation	arm_flex_r	arm_add_r	arm_rot_r	elbow_flex_r	pro_sup_r	wrist_flex_r	wrist_dev_r	arm_flex_l	arm_add_l	arm_rot_l	elbow_flex_l	pro_sup_l	wrist_flex_l	wrist_dev_l
15	-2.94086	1.51116	-1.61596	0.475791	0.823113	1.08452	-0.0407681	-0.0455858	-0.117083	0.304407	-0.222345	0	0	-0.0527351	-0.100159	-0.31549	0.35272	-0.269408	0	0	-0.34625	0.0260563	-0.124061	0.596829	-0.575457	0.895065	1.12561	0.671452	0	0	0.149706	-0.621848	0.33	1.34496	0.933641	0	0
15.01	-2.94763	1.51064	-1.60977	0.475723	0.823032	1.08458	-0.0410867	-0.0454457	-0.117004	0.304467	-0.22278	0	0	-0.0533012	-0.100465	-0.31619	0.352907	-0.269362	0	0	-0.345211	0.0284258	-0.124378	0.621221	-0.57184	0.919194	1.10932	0.658044	0	0	0.169545	-0.62495	0.346237	1.33335	0.916945	0	0
15.02	-2.9546	1.50987	-1.60333	0.475633	0.822959	1.08465	-0.0416564	-0.0453495	-0.117347	0.304627	-0.223165	0	0	-0.0541986	-0.100781	-0.316972	0.352988	-0.269297	0	0	-0.344532	0.0309487	-0.124615	0.645313	-0.567912	0.943522	1.09331	0.64193	0	0	0.189262	-0.62756	0.362906	1.32146	0.899911	0	0
15.03	-2.96279	1.50919	-1.59559	0.475531	0.82289	1.08471	-0.0420644	-0.0451987	-0.117941	0.305006	-0.223473	0	0	-0.0549384	-0.101208	-0.317726	0.353179	-0.269204	0	0	-0.344148	0.0334136	-0.124768	0.668705	-0.563315	0.966885	1.07726	0.627386	0	0	0.208099	-0.629378	0.378527	1.30987	0.884509	0	0
15.04	-2.97218	1.50864	-1.58663	0.475442	0.822835	1.08477	-0.0423716	-0.0449371	-0.118632	0.305406	-0.223804	0	0	-0.0555265	-0.101796	-0.318561	0.353461	-0.269126	0	0	-0.343936	0.0358179	-0.12449	0.691334	-0.55851	0.989932	1.06152	0.613844	0	0	0.22656	-0.630412	0.393844	1.29816	0.871572	0	0
15.05	-2.98064	1.50806	-1.57863	0.475358	0.822791	1.08481	-0.042897	-0.0446486	-0.118973	0.305483	-0.224174	0	0	-0.0562152	-0.10235	-0.319609	0.353733	-0.268915	0	0	-0.34354	0.0381651	-0.123895	0.713818	-0.553358	1.01414	1.04532	0.600424	0	0	0.245255	-0.631007	0.410082	1.28558	0.859122	0	0
15.06	-2.98551	1.50777	-1.57432	0.47525	0.822753	1.08482	-0.0431155	-0.0446298	-0.119278	0.305549	-0.224378	0	0	-0.0569004	-0.102408	-0.320209	0.353267	-0.268611	0	0	-0.343926	0.0400426	-0.123129	0.733976	-0.548161	1.03407	1.03073	0.589594	0	0	0.263207	-0.631276	0.424425	1.27423	0.848779	0	0
15.07	-2.98802	1.50753	-1.5724	0.475093	0.822697	1.08482	-0.0432538	-0.0448624	-0.119781	0.305516	-0.224652	0	0	-0.057563	-0.102154	-0.320678	0.352658	-0.268371	0	0	-0.344412	0.0418646	-0.1223	0.753491	-0.542775	1.05308	1.01591	0.578587	0	0	0.281018	-0.631108	0.438346	1.26234	0.838718	0	0
15.08	-2.99457	1.50701	-1.56611	0.474925	0.822611	1.08486	-0.0437873	-0.0447643	-0.120544	0.305349	-0.225114	0	0	-0.0583364	-0.102321	-0.320892	0.352357	-0.26817	0	0	-0.345451	0.0439718	-0.121576	0.772535	-0.537171	1.07183	1.00085	0.568481	0	0	0.298865	-0.630707	0.452033	1.25002	0.828706	0	0
15.09	-3.00271	1.50636	-1.55777	0.474739	0.822495	1.0849	-0.0445945	-0.0444286	-0.121123	0.30497	-0.225583	0	0	-0.0589306	-0.102775	-0.320804	0.352501	-0.267928	0	0	-0.346965	0.0462562	-0.121187	0.791119	-0.531423	1.09042	0.985903	0.559415	0	0	0.316686	-0.630173	0.465389	1.23751	0.818685	0	0
15.1	-3.00663	1.5062	-1.5541	0.474658	0.822438	1.0849	-0.04482	-0.0442297	-0.120716	0.304587	-0.225887	0	0	-0.0591285	-0.103061	-0.321425	0.352652	-0.267863	0	0	-0.348165	0.047868	-0.120617	0.808729	-0.525159	1.10841	0.970919	0.551409	0	0	0.333599	-0.629665	0.477976	1.22538	0.808616	0	0
15.11	-3.00744	1.50632	-1.55402	0.474706	0.822428	1.08488	-0.0446465	-0.0440759	-0.119611	0.304324	-0.226038	0	0	-0.0591702	-0.103246	-0.322706	0.352695	-0.267976	0	0	-0.34973	0.0487066	-0.119862	0.82468	-0.518695	1.12368	0.95708	0.545268	0	0	0.349236	-0.62934	0.488793	1.21482	0.800275	0	0
15.12	-3.00884	1.50636	-1.55317	0.474722	0.822417	1.08488	-0.0445508	-0.04397	-0.118964	0.304175	-0.226188	0	0	-0.0591821	-0.103511	-0.323945	0.35294	-0.268037	0	0	-0.351278	0.0495664	-0.118783	0.839728	-0.512707	1.13842	0.943891	0.539144	0	0	0.365139	-0.628361	0.499888	1.204	0.792989	0	0
15.13	-3.01115	1.50639	-1.55107	0.474609	0.822389	1.08489	-0.044374	-0.0440215	-0.119166	0.304366	-0.226251	0	0	-0.0590302	-0.103738	-0.324961	0.353462	-0.267853	0	0	-0.35295	0.0507864	-0.117558	0.853368	-0.507523	1.15102	0.931887	0.532468	0	0	0.380946	-0.626652	0.510978	1.19327	0.786517	0	0
15.14	-3.01234	1.50647	-1.54996	0.474448	0.82234	1.08488	-0.0440006	-0.0442267	-0.119516	0.304872	-0.226297	0	0	-0.0587408	-0.10382	-0.325936	0.354189	-0.267507	0	0	-0.354756	0.0519859	-0.116222	0.865946	-0.50292	1.16173	0.920837	0.525882	0	0	0.396738	-0.624697	0.522202	1.18276	0.780508	0	0
15.15	-3.01329	1.50647	-1.54906	0.474302	0.822269	1.08487	-0.0435322	-0.0444493	-0.119729	0.30572	-0.226443	0	0	-0.0584596	-0.10392	-0.326962	0.354942	-0.267274	0	0	-0.356918	0.0530258	-0.114568	0.878108	-0.49887	1.17232	0.910329	0.520746	0	0	0.412713	-0.622469	0.533466	1.17227	0.774964	0	0
15.16	-3.01401	1.50665	-1.54839	0.474163	0.822193	1.08487	-0.0431318	-0.0445855	-0.119715	0.305976	-0.226809	0	0	-0.0579747	-0.104	-0.327871	0.35566	-0.267256	0	0	-0.359252	0.0539896	-0.112735	0.889317	-0.495144	1.18183	0.900445	0.516624	0	0	0.42858	-0.620136	0.544576	1.16188	0.770082	0	0
15.17	-3.01402	1.5069	-1.54842	0.47401	0.822117	1.08488	-0.0428057	-0.044765	-0.119664	0.305913	-0.227371	0	0	-0.0574772	-0.103948	-0.328696	0.356026	-0.267531	0	0	-0.361716	0.0549197	-0.110918	0.899704	-0.491625	1.19021	0.890981	0.513115	0	0	0.444121	-0.61762	0.55528	1.15139	0.765496	0	0
15.18	-3.01419	1.50721	-1.54819	0.473838	0.822069	1.0849	-0.0424873	-0.0449681	-0.119899	0.305855	-0.227978	0	0	-0.0569739	-0.103889	-0.329541	0.356269	-0.267908	0	0	-0.364227	0.0557843	-0.109108	0.90979	-0.488315	1.19833	0.881432	0.510705	0	0	0.45934	-0.614835	0.565569	1.14074	0.761335	0	0
15.19	-3.01587	1.50764	-1.54634	0.473652	0.822028	1.08489	-0.0420486	-0.0450939	-0.120342	0.305796	-0.228398	0	0	-0.0562747	-0.103969	-0.330316	0.356729	-0.268135	0	0	-0.366766	0.0567237	-0.107291	0.918863	-0.48525	1.20458	0.872268	0.507613	0	0	0.474069	-0.611579	0.574957	1.13006	0.758047	0	0
15.2	-3.01926	1.50812	-1.54269	0.473462	0.821986	1.08488	-0.0415206	-0.0451202	-0.120884	0.305761	-0.228654	0	0	-0.0555125	-0.104156	-0.331049	0.357209	-0.268292	0	0	-0.369279	0.0579449	-0.105604	0.927149	-0.482307	1.20987	0.863748	0.504776	0	0	0.48818	-0.607939	0.583596	1.11911	0.755553	0	0
15.21	-3.02285	1.5088	-1.53881	0.473278	0.821953	1.08485	-0.0407986	-0.0450982	-0.121326	0.305657	-0.228912	0	0	-0.0546617	-0.104286	-0.331437	0.357381	-0.268474	0	0	-0.371462	0.0591672	-0.103994	0.934991	-0.479295	1.21537	0.855286	0.502119	0	0	0.501649	-0.604132	0.591815	1.10799	0.753739	0	0
15.22	-3.02584	1.50958	-1.53556	0.473089	0.821924	1.08481	-0.0398749	-0.0451515	-0.121792	0.305709	-0.229233	0	0	-0.0536757	-0.104399	-0.331793	0.357634	-0.268651	0	0	-0.373379	0.0603278	-0.102479	0.942519	-0.476255	1.22122	0.846872	0.49948	0	0	0.514758	-0.600388	0.60005	1.09686	0.752522	0	0
15.23	-3.02971	1.51036	-1.53137	0.472888	0.821898	1.08476	-0.0389365	-0.0451799	-0.122383	0.305871	-0.229236	0	0	-0.0526607	-0.104524	-0.331921	0.357845	-0.268859	0	0	-0.375163	0.0614194	-0.101048	0.949828	-0.473113	1.22746	0.838207	0.496904	0	0	0.527584	-0.596585	0.608236	1.0858	0.751494	0	0
